<?xml version="1.0" encoding="UTF-8"?>
<svg width="192px" height="48px" viewBox="0 0 192 48" version="1.1" xmlns="http://www.w3.org/2000/svg" xmlns:xlink="http://www.w3.org/1999/xlink">
    <g id="Login" stroke="none" stroke-width="1" fill="none" fill-rule="evenodd">
        <g id="Login---Desktop" transform="translate(-624.000000, -324.000000)" fill="#36424A">
            <g id="Group" transform="translate(559.000000, 324.000000)">
                <path d="M247.32139,0 C247.040587,0 246.800332,0.196714892 246.7537,0.465722508 L243.442344,19.7856748 L243.194486,19.3386402 C242.311525,17.8391809 241.008372,16.7783958 239.286548,16.1572686 C237.564217,15.5361413 235.666003,15.2253318 233.590386,15.2253318 C231.294282,15.2253318 229.175075,15.6861364 227.23175,16.6072539 C225.288932,17.5283714 223.577752,18.7602984 222.098716,20.3020514 C220.619174,21.8447879 219.394078,23.6117794 218.422416,25.6040095 C217.45126,27.5962396 216.811088,29.6848599 216.5019,31.8703624 C216.148614,34.2260232 216.203863,36.389887 216.667138,38.3604785 C217.131428,40.3315617 217.958633,42.0341291 219.151289,43.469656 C220.342932,44.905183 221.855927,46.019081 223.688248,46.8113503 C225.52057,47.6041113 227.629133,48 230.013938,48 C231.117893,48 232.210696,47.8504967 233.292349,47.5505065 C234.374508,47.2505163 235.37861,46.8649551 236.305668,46.3938229 C237.233233,45.9226907 240.280006,43.3939208 241.141171,42.9041007 C241.605968,42.6390274 242.114354,42.3449386 242.978561,42.3449386 C243.842261,42.3449386 244.291345,42.7457452 244.648685,43.1273721 C245.224485,43.7421062 246.027868,46.298908 246.373044,46.8438082 C246.719233,47.3887085 247.240292,48 248.104499,48 C248.968706,48 249.713799,46.3687418 249.88664,45.697944 C250.560265,43.0855702 252.930878,27.7127023 257,0 L247.32139,0 Z M226.57636,31.2727273 C226.926579,28.8876094 227.889305,26.9584113 229.46504,25.48364 C231.041278,24.0093664 233.076771,23.2727273 235.571518,23.2727273 C238.066768,23.2727273 239.905293,24.0093664 241.087095,25.48364 C242.268896,26.9584113 242.684939,28.8876094 242.334217,31.2727273 C241.9845,33.6573474 241.010217,35.5870432 239.412876,37.0608191 C237.815032,38.5350927 235.768485,39.2727273 233.273235,39.2727273 C230.778488,39.2727273 228.951017,38.5350927 227.790821,37.0608191 C226.631128,35.5870432 226.22614,33.6573474 226.57636,31.2727273 Z M185.539557,19.1045174 C183.72692,20.5698228 182.212668,22.3297958 180.9968,24.3849382 C179.781441,26.4405825 178.996404,28.7366796 178.643214,31.2732293 C178.289517,33.809277 178.433127,36.105374 179.074045,38.1605164 C179.714964,40.2161608 180.731908,41.9766357 182.12437,43.4409372 C183.516833,44.9062427 185.252336,46.0327057 187.330373,46.8198242 C189.407902,47.6064407 191.684355,48 194.160238,48 C196.768568,48 199.365226,47.4533341 201.951735,46.3605044 C204.538244,45.2671727 206.759384,43.7145211 208.61617,41.7030518 C204.460603,38.3357105 202.383074,36.6520399 202.383074,36.6520399 C201.365622,37.7885426 200.249724,38.718226 199.034364,39.440086 C197.818497,40.161444 196.392542,40.522374 194.756501,40.522374 C192.811417,40.522374 191.253524,39.9646643 190.081805,38.8497471 C188.910594,37.7343279 188.258005,35.8945387 188.125558,34.0135864 L211.202679,34.0135864 L211.666495,31.2732293 C212.020192,28.7366796 211.987207,26.4405825 211.567033,24.3849382 C211.147366,22.3297958 210.384658,20.5698228 209.279416,19.1045174 C208.174175,17.6392119 206.737056,16.5137529 204.968568,15.7266343 C203.201095,14.9390138 201.167206,14.5454545 198.868426,14.5454545 C196.392542,14.5454545 194.005464,14.9390138 191.706176,15.7266343 C189.407902,16.5137529 187.352194,17.6392119 185.539557,19.1045174 Z M191.198115,23.6204534 C191.855142,23.0934196 192.621255,22.6612423 193.497459,22.3244053 C194.373159,21.9866003 195.358449,21.8181818 196.453326,21.8181818 C198.248965,21.8181818 199.62837,22.3873202 200.592043,23.525597 C201.555716,24.6643578 201.905594,26.034452 201.642683,27.6363636 L188.636364,27.6363636 C188.811303,26.8775124 189.118452,26.1501187 189.555799,25.4546664 C189.99365,24.7592142 190.541088,24.1474872 191.198115,23.6204534 Z M147.721839,19.1045174 C145.909213,20.5698228 144.39497,22.3297958 143.17911,24.3849382 C141.963758,26.4405825 141.178727,28.7366796 140.825031,31.2732293 C140.471336,33.809277 140.614945,36.105374 141.25586,38.1605164 C141.897282,40.2161608 142.913712,41.9766357 144.306673,43.4409372 C145.699127,44.9062427 147.434112,46.0327057 149.512137,46.8198242 C151.589653,47.6064407 153.866092,48 156.34196,48 C158.950274,48 161.547424,47.4533341 164.133409,46.3605044 C166.719902,45.2671727 168.941536,43.7145211 170.797803,41.7030518 L164.564745,36.6520399 C163.547807,37.7885426 162.431916,38.718226 161.216056,39.440086 C160.000196,40.161444 158.574758,40.522374 156.939234,40.522374 C154.994162,40.522374 153.435264,39.9646643 152.263552,38.8497471 C151.092348,37.7343279 150.44027,35.8945387 150.307825,34.0135864 L173.384296,34.0135864 L173.848109,31.2732293 C174.202312,28.7366796 174.16882,26.4405825 173.748648,24.3849382 C173.328984,22.3297958 172.56628,20.5698228 171.461045,19.1045174 C170.355811,17.6392119 168.918701,16.5137529 167.151238,15.7266343 C165.382761,14.9390138 163.348885,14.5454545 161.050119,14.5454545 C158.574758,14.5454545 156.187187,14.9390138 153.88842,15.7266343 C151.589653,16.5137529 149.533957,17.6392119 147.721839,19.1045174 Z M153.379886,23.6204534 C154.036901,23.0934196 154.802999,22.6612423 155.679186,22.3244053 C156.554871,21.9866003 157.540142,21.8181818 158.634999,21.8181818 C160.431107,21.8181818 161.810486,22.3873202 162.773639,23.525597 C163.737294,24.6643578 164.087165,26.034452 163.824762,27.6363636 L150.818182,27.6363636 C150.99362,26.8775124 151.300261,26.1501187 151.738103,25.4546664 C152.175945,24.7592142 152.722871,24.1474872 153.379886,23.6204534 Z M128.059495,14.5454545 C130.003605,14.5454545 132.003765,14.8627115 134.061533,15.4967234 C136.118262,16.1307354 137.825197,17.2351108 139.181818,18.8093479 L139.181818,18.8093479 L131.517997,25.8597814 C131.111115,25.1600089 130.489373,24.3523089 129.653292,23.8929891 C128.816691,23.4341713 127.87837,23.2047623 126.838328,23.2047623 C124.261578,23.2047623 122.159178,23.9477059 120.531647,25.4345969 C118.903598,26.9219898 117.909227,28.8676987 117.547496,31.2732293 C117.185765,33.6782579 117.604065,35.6244687 118.802396,37.1108577 C120.000209,38.5977487 121.88775,39.3416962 124.4645,39.3416962 C125.594845,39.3416962 126.612571,39.1007415 127.516639,38.6203382 C128.420707,38.1389309 129.212156,37.5701775 129.890467,36.91458 L129.890467,36.91458 L135.586823,43.7366086 C133.733535,45.3108457 131.699122,46.4152212 129.483584,47.0492331 C127.268046,47.683245 125.188481,48 123.244371,48 C120.712254,48 118.383577,47.6064407 116.258861,46.8198242 C114.133626,46.0327057 112.359223,44.9062427 110.935134,43.4409372 C109.511045,41.9766357 108.471003,40.2161608 107.815528,38.1605164 C107.160052,36.105374 107.01318,33.809277 107.374392,31.2732293 C107.736642,28.7366796 108.53899,26.4405825 109.782473,24.3849382 C111.025956,22.3297958 112.574082,20.5698228 114.427889,19.1045174 C116.281177,17.6392119 118.383577,16.5137529 120.735089,15.7266343 C123.086081,14.9390138 125.527377,14.5454545 128.059495,14.5454545 Z M94.0884292,16 L105.727273,16.0417425 L92.5123145,30.6776267 L103.406243,48 L91.4641242,47.9230564 L85.496128,38.4489327 L77.1131586,47.7329604 C77.0038976,47.8541591 76.8476647,47.9235593 76.6832627,47.925068 L76.6832627,47.925068 L65,48 L80.6018503,30.6796383 L71.381554,16.0417425 L82.9570875,16 C83.1587607,15.9994989 83.3461381,16.1020904 83.4523357,16.2705618 L83.4523357,16.2705618 L87.6170157,22.8927424 L93.6524066,16.1926123 C93.7626886,16.0699049 93.9209638,16 94.0868975,16 L94.0868975,16 L94.0884292,16 Z" id="Xceed-Logo"></path>
            </g>
        </g>
    </g>
</svg>