<svg width="16" height="16" viewBox="0 0 16 16" xmlns="http://www.w3.org/2000/svg">
    <path d="M8 0a8 8 0 1 1 0 16A8 8 0 0 1 8 0zm1.659 5.2c-.32 0-.631.063-.906.17-.107.04-.135.083-.136.166v4.494a.171.171 0 0 0 .153.168H10.615l.217.001 1.862.001a1.416 1.416 0 1 0-.548-2.723A2.498 2.498 0 0 0 9.66 5.2zm-1.815.607a.148.148 0 0 0-.146.145l-.055 2.924.055 1.176c.001.08.067.145.146.145a.147.147 0 0 0 .138-.1l.008-.046.062-1.174-.062-2.925a.148.148 0 0 0-.146-.145zm-.485.476a.137.137 0 0 0-.137.136l-.06 2.458.06 1.183a.136.136 0 0 0 .265.042l.008-.042.068-1.183-.068-2.458a.137.137 0 0 0-.136-.136zm-1.905.16a.098.098 0 0 0-.097.096l-.085 2.337.085 1.222a.098.098 0 0 0 .097.095.099.099 0 0 0 .097-.096l.095-1.22-.095-2.338a.099.099 0 0 0-.097-.096zm.945-.3a.117.117 0 0 0-.117.116L6.21 8.876l.072 1.202a.116.116 0 0 0 .223.045l.01-.045.082-1.201-.082-2.618a.118.118 0 0 0-.116-.116zm.478.057a.127.127 0 0 0-.127.126l-.066 2.55.066 1.19c.002.07.057.126.127.126a.126.126 0 0 0 .119-.086l.007-.039.075-1.19-.075-2.551a.127.127 0 0 0-.126-.126zm-1.89.687a.089.089 0 0 0-.087.087l-.09 1.902.09 1.23c.002.047.04.085.087.085a.087.087 0 0 0 .078-.052l.009-.034.102-1.23-.102-1.901a.09.09 0 0 0-.087-.087zm.937-.65a.108.108 0 0 0-.106.107l-.079 2.532.079 1.21a.108.108 0 0 0 .106.105.108.108 0 0 0 .107-.106l.088-1.209-.088-2.532a.108.108 0 0 0-.107-.106zm2.403-.705a.158.158 0 0 0-.156.155l-.064 3.19.064 1.158c.002.085.071.155.156.155a.157.157 0 0 0 .148-.107l.008-.048.07-1.157-.07-3.19a.157.157 0 0 0-.156-.156zM4.523 7.63a.078.078 0 0 0-.077.076l-.096 1.17.096 1.229a.078.078 0 0 0 .077.076.079.079 0 0 0 .078-.076l.108-1.23-.108-1.17a.079.079 0 0 0-.078-.075zm-.46-.082c-.035 0-.064.029-.067.067l-.101 1.26.101 1.22a.069.069 0 0 0 .068.066c.035 0 .064-.028.067-.066l.116-1.22-.116-1.26c-.003-.038-.032-.067-.067-.067zm-.455.044c-.03 0-.055.024-.058.056l-.107 1.227.107 1.182c.003.033.027.057.058.057.03 0 .054-.024.058-.057l.122-1.182-.122-1.227c-.004-.032-.028-.056-.058-.056zm-.452.203c-.025 0-.045.02-.048.046l-.043.389-.028.256-.042.389.113 1.011c.003.027.023.047.048.047.024 0 .044-.02.048-.047l.128-1.011-.128-1.034c-.004-.028-.024-.046-.048-.046zm-.426.395c-.024 0-.043.019-.046.045l-.084.64.084.628c.003.027.022.045.046.045.016 0 .03-.008.038-.021l.008-.023.1-.63-.1-.639c-.003-.026-.023-.045-.046-.045z" fill="#F83F0E" fill-rule="evenodd"/>
</svg>
